<svg width="75" height="30" viewBox="0 0 75 30" fill="none" xmlns="http://www.w3.org/2000/svg">
<g clip-path="url(#clip0_31_1763)">
<rect x="0.5" width="30" height="30" rx="5" fill="#6FA9DC"/>
<path d="M11.8333 9L15.1667 12.3333V9.83333C17.925 9.83333 20.1667 12.075 20.1667 14.8333C20.1667 15.675 19.9583 16.475 19.5833 17.1667L20.8 18.3833C21.45 17.3583 21.8333 16.1417 21.8333 14.8333C21.8333 11.15 18.85 8.16667 15.1667 8.16667V5.66667L11.8333 9ZM15.1667 19.8333C12.4083 19.8333 10.1667 17.5917 10.1667 14.8333C10.1667 13.9917 10.375 13.1917 10.75 12.5L9.53333 11.2833C8.88333 12.3083 8.5 13.525 8.5 14.8333C8.5 18.5167 11.4833 21.5 15.1667 21.5V24L18.5 20.6667L15.1667 17.3333V19.8333Z" fill="white"/>
<rect x="44.5" width="30" height="30" rx="5" fill="#6FA9DC"/>
<path d="M52.5 12.8083V17.8083H55.8333L60 21.975V8.64167L55.8333 12.8083H52.5ZM63.75 15.3083C63.75 13.8333 62.9 12.5667 61.6667 11.95V18.6583C62.9 18.05 63.75 16.7833 63.75 15.3083ZM61.6667 8V9.71667C64.075 10.4333 65.8333 12.6667 65.8333 15.3083C65.8333 17.95 64.075 20.1833 61.6667 20.9V22.6167C65.0083 21.8583 67.5 18.875 67.5 15.3083C67.5 11.7417 65.0083 8.75833 61.6667 8Z" fill="white"/>
</g>
<defs>
<clipPath id="clip0_31_1763">
<rect width="74" height="30" fill="white" transform="translate(0.5)"/>
</clipPath>
</defs>
</svg>
